<svg width="41" height="56" viewBox="0 0 41 56" fill="none" xmlns="http://www.w3.org/2000/svg">
<path d="M20.5 0C22.8301 0 25.0648 0.925635 26.7124 2.57328C28.3601 4.22092 29.2857 6.4556 29.2857 8.78571V26.3571C29.2857 28.6873 28.3601 30.9219 26.7124 32.5696C25.0648 34.2172 22.8301 35.1429 20.5 35.1429C18.1699 35.1429 15.9352 34.2172 14.2876 32.5696C12.6399 30.9219 11.7143 28.6873 11.7143 26.3571V8.78571C11.7143 6.4556 12.6399 4.22092 14.2876 2.57328C15.9352 0.925635 18.1699 0 20.5 0ZM41 26.3571C41 36.695 33.3564 45.2171 23.4286 46.6521V55.6428H17.5714V46.6521C7.64357 45.2171 0 36.695 0 26.3571H5.85714C5.85714 30.2407 7.39987 33.9651 10.1459 36.7112C12.892 39.4573 16.6165 41 20.5 41C24.3835 41 28.108 39.4573 30.8541 36.7112C33.6001 33.9651 35.1428 30.2407 35.1428 26.3571H41Z" fill="white"/>
</svg>
