<svg width="24" height="21" viewBox="0 0 24 21" fill="none" xmlns="http://www.w3.org/2000/svg">
<path d="M15.1667 15.75V12.8333H8.16667V15.75L4.08333 11.6667L8.16667 7.58333V10.5H15.1667V7.58333L19.25 11.6667M21 2.33333H17.3017L15.1667 0H8.16667L6.03167 2.33333H2.33333C1.71449 2.33333 1.121 2.57917 0.683417 3.01675C0.245833 3.45434 0 4.04783 0 4.66667V18.6667C0 19.2855 0.245833 19.879 0.683417 20.3166C1.121 20.7542 1.71449 21 2.33333 21H21C21.6188 21 22.2123 20.7542 22.6499 20.3166C23.0875 19.879 23.3333 19.2855 23.3333 18.6667V4.66667C23.3333 3.37167 22.2833 2.33333 21 2.33333Z" fill="black"/>
</svg>
